# xmcd CD database file
#
# Track frame offsets:
#	150
#	21428
#	42587
#	61729
#	81343
#	103038
#	125935
#	144655
#	169041
#	189829
#	207508
#	243519
#
# Disc length: 3316 seconds
#
# Revision: 0
# Processed by: cddbd v1.5.1PL0 Copyright (c) Steve Scherf et al.
# Submitted via: CDex 1.51
#
DISCID=b10cf20c
DTITLE=WIZ - Shattered-Mind -Therapy
DYEAR=2004
DGENRE=Power Metal
TTITLE0=Mr Sandman
TTITLE1=In Your Eyes
TTITLE2=Super Psychic Woman
TTITLE3=One Chapter Of A Fairytale
TTITLE4=Sun Moon Stars
TTITLE5=Down
TTITLE6=Understand
TTITLE7=Return Of Atlantis
TTITLE8=Empty Words
TTITLE9=From The Ashes We Rise
TTITLE10=Labyrinth (Bonus Track)
TTITLE11=DATA
EXTD=YEAR: 2004
EXTT0=
EXTT1=
EXTT2=
EXTT3=
EXTT4=
EXTT5=
EXTT6=
EXTT7=
EXTT8=
EXTT9=
EXTT10=
EXTT11=
PLAYORDER=
